<svg width="52" height="53" viewBox="0 0 52 53" fill="none" xmlns="http://www.w3.org/2000/svg">
<path d="M24.2409 9.95605C26.899 8.51723 29.9431 7.7002 33.1781 7.7002C37.0622 7.7002 40.6704 8.87899 43.6667 10.8971C39.3626 6.06262 33.1101 3 26.128 3C13.1496 3 2.62811 13.5214 2.62811 26.5001C2.62811 39.4786 13.1496 50 26.128 50C33.1101 50 39.3623 46.9374 43.6664 42.1032C40.6701 44.1213 37.0619 45.3001 33.1781 45.3001C22.795 45.3001 14.3779 36.8829 14.3779 26.5001C14.3779 22.8398 15.4242 19.4236 17.2338 16.5345" stroke="#FEF7F7" stroke-width="4.39737" stroke-miterlimit="10" stroke-linecap="round" stroke-linejoin="round"/>
<path d="M43.4014 23.1641V29.442M43.4014 29.442L49.3718 27.5019M43.4014 29.442L47.0914 34.5207M43.4014 29.442L39.7114 34.5207M43.4014 29.442L37.4309 27.5019" stroke="#FEF7F7" stroke-width="4.39737" stroke-miterlimit="10" stroke-linecap="round" stroke-linejoin="round"/>
</svg>
